<svg width="17" height="16" viewBox="0 0 17 16" fill="none" xmlns="http://www.w3.org/2000/svg">
<path d="M16.7967 13.8751L13.9141 16L11.3272 13.5119C10.4895 13.7299 9.5471 13.8388 8.5 13.8388C6.93551 13.8388 5.51268 13.5785 4.23152 13.0579C2.96268 12.5252 1.94022 11.7261 1.16413 10.6606C0.388043 9.59516 0 8.34809 0 6.91941C0 5.50284 0.388043 4.26182 1.16413 3.19637C1.94022 2.13091 2.96268 1.33182 4.23152 0.799091C5.51268 0.266364 6.93551 0 8.5 0C10.0645 0 11.4812 0.266364 12.75 0.799091C14.0312 1.33182 15.0598 2.13091 15.8359 3.19637C16.612 4.26182 17 5.50284 17 6.91941C17 9.00189 16.2301 10.6606 14.6902 11.8956L16.7967 13.8751ZM12.0478 9.71623C12.8609 9.03821 13.2674 8.10594 13.2674 6.91941C13.2674 5.73288 12.8609 4.80061 12.0478 4.12259C11.2348 3.44457 10.0522 3.10556 8.5 3.10556C6.94783 3.10556 5.76522 3.44457 4.95217 4.12259C4.13913 4.80061 3.73261 5.73288 3.73261 6.91941C3.73261 8.10594 4.13913 9.03821 4.95217 9.71623C5.76522 10.3942 6.94783 10.7333 8.5 10.7333C10.0522 10.7333 11.2348 10.3942 12.0478 9.71623Z" fill="#2B59FF"/>
</svg>
