<svg xmlns="http://www.w3.org/2000/svg" viewBox="0 0 105 152.6">
  <rect width="105" height="152.6" rx="20" fill="#e93eea"/>
  <path d="m101.81,45.6c-.11-1.37-.28-2.73-.46-4.09-.43-3.15-1.44-6.14-2.74-9.02-2.64-5.86-6.35-10.97-10.9-15.47-4.71-4.65-10.12-8.33-16.09-11.16-4.82-2.29-9.93-3.72-15.16-4.71-3.24-.61-6.52-.94-9.82-1.09-5.15-.21-10.25.23-15.27,1.39-4.21.97-8.24,2.44-11.97,4.62-3.89,2.26-7.26,5.17-10.15,8.63-2.35,2.83-4.43,5.83-5.88,9.21-1.44,3.32-2.37,6.8-2.9,10.39-.43,2.9-.61,5.82-.31,8.73.5,4.67,1.75,9.14,3.76,13.37,2.68,5.61,6.31,10.54,10.61,15.01,2.95,3.07,6.09,5.92,9.49,8.51,1.13.86,2.25,1.73,3.37,2.63.47.39.95.8,1.34,1.26.12.13.2.26.27.38.07.13.12.26.13.38,0,.04,0,.07,0,.11s0,.08,0,.12c0,.05-.02.1-.03.15,0,0,0,0,0,.02-.17.73-.88,1.57-.99,1.68,0,0,0,.02,0,.02-.54.67-1.02,1.27-1.52,1.86-3.57,4.37-6.8,9.01-9.33,14.07-1.62,3.26-3.04,6.63-4.45,9.98-2,4.76-3.54,9.68-4.48,14.74-.75,4.11-1.32,8.24-1.86,12.38-.49,3.69-.68,7.41-.48,11.14.02.41.07.8.1,1.19h66.39c-.03-.35-.04-.56-.08-.77-.33-1.7-.58-1.91-2.32-1.91-1.85,0-3.7.02-5.53.02-7.27-.03,11.98-.07,4.72-.11-2.11-.02-3.99-.65-5.5-2.2-.23-.24-.49-.46-.72-.7-3.91-4.08-6.7-8.87-8.71-14.11-.32-.83-.43-1.74-.61-2.62-.1-.52.14-.89.61-1.09.44-.17.75.09.95.41.51.79,1.07,1.56,1.43,2.41,1.07,2.57,2.17,5.12,3.71,7.46,1.46,2.21,3.04,4.3,5.2,5.87.57.42,1.21.78,1.87,1.04.78.3,1.78-.04,2.23-.66.5-.7.4-1.42,0-2.12-.17-.29-.38-.56-.6-.81-2.97-3.54-5.25-7.52-7.4-11.58-.66-1.25-1.06-2.64-1.52-3.99-.16-.47-.13-1.01-.21-1.61h1.67c.15.31.27.62.43.92.85,1.72,1.78,3.39,3.16,4.76,1.4,1.41,3.15,1.26,4.66.4,1.46-.84,2.21-2.54,1.72-4.15-.22-.74-.63-1.45-1.1-2.06-1.96-2.58-4.1-5.01-5.92-7.67-3.94-5.72-6.4-12.06-7.68-18.87-.14-.75-.17-1.48-.12-2.23,1.04-.43,2.04-.87,3.07-1.22,2.99-1.03,5.92-2.21,8.74-3.6,6.75-3.34,12.94-7.49,18.39-12.72,2.54-2.44,4.76-5.11,6.77-7.97-.02-.11-.04-.21-.06-.31.46-.65.92-1.33,1.38-1.99.09-.12,3.41-6.46,4.26-8,.15-.47.29-.94.46-1.4,1.06-2.86,1.67-5.82,1.93-8.87.12-1.4.07-2.79-.05-4.18.05-.07.09-.16.14-.22Zm-45.71,28.01c-.47.16-.95.3-1.44.41-1.61.37-3.25.46-4.94.33-3.36-.23-6.55-.99-9.62-2.34-3.82-1.68-7.03-4.13-9.37-7.64-1.03-1.53-1.81-3.17-2.18-5-.3-1.48-.35-2.97.17-4.42.65-1.82,1.99-2.77,3.85-3.06,2.15-.33,4.2.13,6.21.81,4.47,1.52,8.33,4.03,11.65,7.34,1.55,1.55,2.88,3.26,3.95,5.1.94,1.57,1.7,3.28,2.27,5.08.29.92.41,1.89.62,2.89-.45.19-.81.36-1.18.49Zm35.22-13.81c-2.08,5.23-5.51,9.28-10.55,11.87-1.89.99-3.91,1.41-6.1,1.35-.22-1.19-.06-2.31.05-3.41.27-2.71.94-5.34,2.12-7.8,1.76-3.65,3.94-6.99,7.03-9.67.82-.7,1.68-1.33,2.68-1.75,1.7-.7,3.35-.54,4.52.75.75.84,1.06,1.84,1.15,2.93.16,1.97-.18,3.89-.9,5.72Z" fill="#ffffff"/>
</svg>
